<svg xmlns="http://www.w3.org/2000/svg" width="383.87322998046875" height="350.07489013671875" viewBox="-76.8663330078125 -81.55288696289062 383.87322998046875 350.07489013671875"><title>Neo4j Graph Visualization</title><desc>Created using Neo4j (http://www.neo4j.com/)</desc><g class="layer relationships"><g class="relationship" transform="translate(28.41966511178704 -9.16554900940462) rotate(379.8937837226375)"><path class="outline" fill="#A5ABB6" stroke="none" d="M 24.018736134675446,-6.953439040707552 L 24.277555179777966,-5.987513214418485 A 146.6957632207362 146.6957632207362 0 0 1 49.315857161769856,-10.415160621392175 L 49.22771995118164,-11.411268964952114 A 147.6957632207362 147.6957632207362 0 0 0 24.018736134675446,-6.953439040707552 Z M 71.29163005029085,-11.708741671331694 L 71.23037969810834,-10.710619236778939 A 146.6957632207362 146.6957632207362 0 0 1 96.37894898609524,-6.959607310748694 L 95.68089740574567,-4.041950032867781 L 103.30315789787564,-5.817096502913162 L 97.30968442656135,-10.849817014589911 L 96.61163284621178,-7.932159736708998 A 147.6957632207362 147.6957632207362 0 0 0 71.29163005029085,-11.708741671331694"/><text text-anchor="middle" pointer-events="none" font-size="8px" fill="#000000" x="60.260852431555385" y="-8.472673851475605" font-family="sans-serif">road</text></g><g class="relationship" transform="translate(148.42109754202167 34.259638103468305) rotate(375.6544345343739)"><path class="outline" fill="#A5ABB6" stroke="none" d="M 21.40063509461097,-12.933012701892217 L 21.90063509461097,-12.06698729810778 A 87.81163036269963 87.81163036269963 0 0 1 40.86870693753586,-20.216032930072174 L 40.58471558883386,-21.174859772553347 A 88.81163036269963 88.81163036269963 0 0 0 21.40063509461097,-12.933012701892217 Z M 86.76121056713376,-22.324019602529447 L 86.52526443929447,-21.352253465664376 A 87.81163036269963 87.81163036269963 0 0 1 105.87520334702162,-14.156799455150148 L 104.50629288816009,-11.487326818912889 L 112.33212457471882,-11.407587157179446 L 107.70041729217033,-17.716096303466493 L 106.3315068333088,-15.046623667229236 A 88.81163036269963 88.81163036269963 0 0 0 86.76121056713376,-22.324019602529447"/><text text-anchor="middle" pointer-events="none" font-size="8px" fill="#000000" x="63.60938514788079" y="-21.304180893726638" font-family="sans-serif">twowheeler</text></g><g class="relationship" transform="translate(278.00688746381616 70.57338796642648) rotate(217.80008826598817)"><path class="outline" fill="#A5ABB6" stroke="none" d="M 21.40063509461097,12.933012701892217 L 21.90063509461097,12.06698729810778 A 44.58723574726606 44.58723574726606 0 0 0 23.151881701267214,12.762851865716016 L 22.679944589349102,13.64448408064149 A 45.58723574726606 45.58723574726606 0 0 1 21.40063509461097,12.933012701892217 Z M 62.809311498881975,15.066715658669239 L 62.4009722296655,14.15388542186956 A 44.58723574726606 44.58723574726606 0 0 0 63.69834208375144,13.548346794835485 L 62.38603226310708,10.850599042609495 L 70.21180514238614,10.935915172036317 L 65.44808851127725,17.14534379780347 L 64.13577869063289,14.44759604557748 A 45.58723574726606 45.58723574726606 0 0 1 62.809311498881975,15.066715658669239"/><text text-anchor="middle" pointer-events="none" font-size="8px" fill="#000000" x="42.5973113602778" y="21.512254347696377" transform="rotate(180 42.5973113602778 18.512254347696377)" font-family="sans-serif">twowhe…</text></g><g class="relationship" transform="translate(204.76510765252235 13.761059294270515) rotate(466.6599297179328)"><path class="outline" fill="#A5ABB6" stroke="none" d="M 25 0.5 L 60.065389609438625 0.5 L 60.065389609438625 -0.5 L 25 -0.5 Z M 79.40132710943863 0.5 L 114.46671671887725 0.5 L 114.46671671887725 3.5 L 121.46671671887725 0 L 114.46671671887725 -3.5 L 114.46671671887725 -0.5 L 79.40132710943863 -0.5 Z"/><text text-anchor="middle" pointer-events="none" font-size="8px" fill="#000000" x="69.73335835943863" y="3" transform="rotate(180 69.73335835943863 0)" font-family="sans-serif">trek</text></g><g class="relationship" transform="translate(278.00688746381616 70.57338796642648) rotate(217.80008826598817)"><path class="outline" fill="#A5ABB6" stroke="none" d="M 25 0.5 L 31.840658830468037 0.5 L 31.840658830468037 -0.5 L 25 -0.5 Z M 53.85237758046804 0.5 L 60.693036410936074 0.5 L 60.693036410936074 3.5 L 67.69303641093607 0 L 60.693036410936074 -3.5 L 60.693036410936074 -0.5 L 53.85237758046804 -0.5 Z"/><text text-anchor="middle" pointer-events="none" font-size="8px" fill="#000000" x="42.84651820546804" y="3" transform="rotate(180 42.84651820546804 0)" font-family="sans-serif">road</text></g><g class="relationship" transform="translate(278.00688746381616 70.57338796642648) rotate(217.80008826598817)"><path class="outline" fill="#A5ABB6" stroke="none" d="M 21.40063509461097,-12.933012701892217 L 21.90063509461097,-12.06698729810778 A 44.58723574726606 44.58723574726606 0 0 1 33.16948431634333,-16.656040635726875 L 32.922221428946756,-17.624989068057673 A 45.58723574726606 45.58723574726606 0 0 0 21.40063509461097,-12.933012701892217 Z M 52.310939016340875,-18.31214783815288 L 52.13289167666238,-17.32812591520939 A 44.58723574726606 44.58723574726606 0 0 1 63.69834208375144,-13.548346794835485 L 62.38603226310708,-10.850599042609495 L 70.21180514238614,-10.935915172036317 L 65.44808851127725,-17.14534379780347 L 64.13577869063289,-14.44759604557748 A 45.58723574726606 45.58723574726606 0 0 0 52.310939016340875,-18.31214783815288"/><text text-anchor="middle" pointer-events="none" font-size="8px" fill="#000000" x="42.597311360277786" y="-15.512254347696377" transform="rotate(180 42.597311360277786 -18.512254347696377)" font-family="sans-serif">trek</text></g><g class="relationship" transform="translate(148.42109754202167 34.259638103468305) rotate(375.6544345343739)"><path class="outline" fill="#A5ABB6" stroke="none" d="M 25 0.5 L 52.783005563347984 0.5 L 52.783005563347984 -0.5 L 25 -0.5 Z M 74.79472431334798 0.5 L 102.57772987669597 0.5 L 102.57772987669597 3.5 L 109.57772987669597 0 L 102.57772987669597 -3.5 L 102.57772987669597 -0.5 L 74.79472431334798 -0.5 Z"/><text text-anchor="middle" pointer-events="none" font-size="8px" fill="#000000" x="63.788864938347984" y="3" font-family="sans-serif">road</text></g><g class="relationship" transform="translate(148.42109754202167 34.259638103468305) rotate(375.6544345343739)"><path class="outline" fill="#A5ABB6" stroke="none" d="M 21.40063509461097,12.933012701892217 L 21.90063509461097,12.06698729810778 A 87.81163036269963 87.81163036269963 0 0 0 54.04383198515036,23.040130794177415 L 53.90987913354943,24.031118500230306 A 88.81163036269963 88.81163036269963 0 0 1 21.40063509461097,12.933012701892217 Z M 73.31046688237777,24.513926390464434 L 73.22597325720986,23.517502370628506 A 87.81163036269963 87.81163036269963 0 0 0 105.87520334702162,14.156799455150148 L 104.50629288816009,11.487326818912889 L 112.33212457471882,11.407587157179446 L 107.70041729217033,17.716096303466493 L 106.3315068333088,15.046623667229236 A 88.81163036269963 88.81163036269963 0 0 1 73.31046688237777,24.513926390464434"/><text text-anchor="middle" pointer-events="none" font-size="8px" fill="#000000" x="63.6093851478808" y="27.304180893726638" font-family="sans-serif">trek</text></g><g class="relationship" transform="translate(28.41966511178704 -9.16554900940462) rotate(379.8937837226375)"><path class="outline" fill="#A5ABB6" stroke="none" d="M 24.018736134675446,6.953439040707552 L 24.277555179777966,5.987513214418485 A 146.6957632207362 146.6957632207362 0 0 0 50.64453004413262,10.52664050680545 L 50.56545016998816,11.523508789732176 A 147.6957632207362 147.6957632207362 0 0 1 24.018736134675446,6.953439040707552 Z M 69.95136011294217,11.784875839836047 L 69.89918429281204,10.78623792557795 A 146.6957632207362 146.6957632207362 0 0 0 96.37894898609524,6.959607310748694 L 95.68089740574567,4.041950032867781 L 103.30315789787564,5.817096502913162 L 97.30968442656135,10.849817014589911 L 96.61163284621178,7.932159736708998 A 147.6957632207362 147.6957632207362 0 0 1 69.95136011294217,11.784875839836047"/><text text-anchor="middle" pointer-events="none" font-size="8px" fill="#000000" x="60.260852431555435" y="14.472673851475605" font-family="sans-serif">trek</text></g><g class="relationship" transform="translate(28.41966511178704 -9.16554900940462) rotate(328.2511723986653)"><path class="outline" fill="#A5ABB6" stroke="none" d="M 21.40063509461097,12.933012701892217 L 21.90063509461097,12.06698729810778 A 33.81432346384172 33.81432346384172 0 0 0 28.130273974478598,14.867172280955877 L 27.81450474539818,15.816008301544237 A 34.81432346384172 34.81432346384172 0 0 1 21.40063509461097,12.933012701892217 Z M 47.158554888858234,16.580882063963656 L 46.91868930390727,15.610075955023191 A 33.81432346384172 33.81432346384172 0 0 0 53.34997495817638,13.31051048630552 L 52.05979582915775,10.60210914694595 L 59.884607938185155,10.751492741821968 L 55.07021379686789,16.92171227211828 L 53.78003466784926,14.213310932758711 A 34.81432346384172 34.81432346384172 0 0 1 47.158554888858234,16.580882063963656"/><text text-anchor="middle" pointer-events="none" font-size="8px" fill="#000000" x="37.45205011170244" y="20.07045463510852" font-family="sans-serif">trek</text></g><g class="relationship" transform="translate(98.53602173993536 -52.55288292196963) rotate(494.1856683520727)"><path class="outline" fill="#A5ABB6" stroke="none" d="M 24.018736134675446,-6.953439040707552 L 24.277555179777966,-5.987513214418485 A 192.97663959975222 192.97663959975222 0 0 1 48.90955657679192,-10.895523642197077 L 48.77837993155761,-11.886882652720033 A 193.97663959975222 193.97663959975222 0 0 0 24.018736134675446,-6.953439040707552 Z M 95.24837179109596,-12.420246616656357 L 95.13998354874678,-11.426137976255092 A 192.97663959975222 192.97663959975222 0 0 1 119.87814551063079,-7.084778519900837 L 119.16840322000054,-4.169943038970406 L 126.79771868124016,-5.914519088585341 L 120.82446856480443,-10.971225827808077 L 120.11472627417419,-8.056390346877647 A 193.97663959975222 193.97663959975222 0 0 0 95.24837179109596,-12.420246616656357"/><text text-anchor="middle" pointer-events="none" font-size="8px" fill="#000000" x="72.00308360469438" y="-10.050290162213884" transform="rotate(180 72.00308360469438 -13.050290162213884)" font-family="sans-serif">twowheeler</text></g><g class="relationship" transform="translate(-6.770172320981097 55.79006135379215) rotate(420.2329660420701)"><path class="outline" fill="#A5ABB6" stroke="none" d="M 24.018736134675446,-6.953439040707552 L 24.277555179777966,-5.987513214418485 A 116.23077860001847 116.23077860001847 0 0 1 29.648547269544043,-7.2906299348718875 L 29.435937947498175,-8.26776722112146 A 117.23077860001847 117.23077860001847 0 0 0 24.018736134675446,-6.953439040707552 Z M 75.78697984864776,-8.973232990826617 L 75.60420629893693,-7.990077952429274 A 116.23077860001847 116.23077860001847 0 0 1 81.01236843096567,-6.851020636423915 L 80.32445922713613,-3.930955409877319 L 87.94050549354597,-5.7325766985794395 L 81.92958070273836,-10.744440938486042 L 81.24167149890883,-7.824375711939446 A 117.23077860001847 117.23077860001847 0 0 0 75.78697984864776,-8.973232990826617"/><text text-anchor="middle" pointer-events="none" font-size="8px" fill="#000000" x="52.583850269734505" y="-7.434462942872628" font-family="sans-serif">twowheeler</text></g><g class="relationship" transform="translate(48.97120632173974 153.24997950551926) rotate(360.41766411544234)"><path class="outline" fill="#A5ABB6" stroke="none" d="M 24.018736134675446,6.953439040707552 L 24.277555179777966,5.987513214418485 A 119.28262136510438 119.28262136510438 0 0 0 30.403486311855414,7.456731985359312 L 30.19602370964433,8.434974935082849 A 120.28262136510438 120.28262136510438 0 0 1 24.018736134675446,6.953439040707552 Z M 76.55759920648771,9.131635462770689 L 76.37962312295451,8.14760064951956 A 119.28262136510438 119.28262136510438 0 0 0 82.54693338634775,6.863108474812426 L 81.85789510732626,3.9433094663114816 L 89.47463745268688,5.7419856585124345 L 83.46565109170974,10.756173819480352 L 82.77661281268826,7.836374810979407 A 120.28262136510438 120.28262136510438 0 0 1 76.55759920648771,9.131635462770689"/><text text-anchor="middle" pointer-events="none" font-size="8px" fill="#000000" x="53.35043747888671" y="13.538448741983402" font-family="sans-serif">twowheeler</text></g><g class="relationship" transform="translate(48.97120632173974 153.24997950551926) rotate(360.41766411544234)"><path class="outline" fill="#A5ABB6" stroke="none" d="M 24.018736134675446,-6.953439040707552 L 24.277555179777966,-5.987513214418485 A 119.28262136510438 119.28262136510438 0 0 1 43.747707507582064,-9.505727298310816 L 43.65211552862701,-10.501147899644465 A 120.28262136510438 120.28262136510438 0 0 0 24.018736134675446,-6.953439040707552 Z M 63.04550139704475,-10.792566089987602 L 62.97986155673682,-9.794722709809946 A 119.28262136510438 119.28262136510438 0 0 1 82.54693338634775,-6.863108474812426 L 81.85789510732626,-3.9433094663114816 L 89.47463745268688,-5.7419856585124345 L 83.46565109170974,-10.756173819480352 L 82.77661281268826,-7.836374810979407 A 120.28262136510438 120.28262136510438 0 0 0 63.04550139704475,-10.792566089987602"/><text text-anchor="middle" pointer-events="none" font-size="8px" fill="#000000" x="53.35043747888667" y="-7.538448741983402" font-family="sans-serif">trek</text></g><g class="relationship" transform="translate(-6.770172320981097 55.79006135379215) rotate(420.2329660420701)"><path class="outline" fill="#A5ABB6" stroke="none" d="M 24.018736134675446,6.953439040707552 L 24.277555179777966,5.987513214418485 A 116.23077860001847 116.23077860001847 0 0 0 42.98308086143041,9.389813236483036 L 42.88519617387894,10.385010999715519 A 117.23077860001847 117.23077860001847 0 0 1 24.018736134675446,6.953439040707552 Z M 62.27951698847842,10.680193780947477 L 62.21196456944228,9.682478054559255 A 116.23077860001847 116.23077860001847 0 0 0 81.01236843096567,6.851020636423915 L 80.32445922713613,3.930955409877319 L 87.94050549354597,5.7325766985794395 L 81.92958070273836,10.744440938486042 L 81.24167149890883,7.824375711939446 A 117.23077860001847 117.23077860001847 0 0 1 62.27951698847842,10.680193780947477"/><text text-anchor="middle" pointer-events="none" font-size="8px" fill="#000000" x="52.58385026973454" y="13.434462942872642" font-family="sans-serif">trek</text></g><g class="relationship" transform="translate(98.53602173993536 -52.55288292196963) rotate(494.1856683520727)"><path class="outline" fill="#A5ABB6" stroke="none" d="M 24.018736134675446,6.953439040707552 L 24.277555179777966,5.987513214418485 A 192.97663959975222 192.97663959975222 0 0 0 62.373250021175046,12.198835633210109 L 62.31184189026614,13.196948373063805 A 193.97663959975222 193.97663959975222 0 0 1 24.018736134675446,6.953439040707552 Z M 81.68840617325061,13.419344821177646 L 81.64992307847912,12.420085569823527 A 192.97663959975222 192.97663959975222 0 0 0 119.87814551063079,7.084778519900837 L 119.16840322000054,4.169943038970406 L 126.79771868124016,5.914519088585341 L 120.82446856480443,10.971225827808077 L 120.11472627417419,8.056390346877647 A 193.97663959975222 193.97663959975222 0 0 1 81.68840617325061,13.419344821177646"/><text text-anchor="middle" pointer-events="none" font-size="8px" fill="#000000" x="72.00308360469447" y="16.050290162213884" transform="rotate(180 72.00308360469447 13.050290162213884)" font-family="sans-serif">trek</text></g><g class="relationship" transform="translate(98.53602173993536 -52.55288292196963) rotate(391.97464065731174)"><path class="outline" fill="#A5ABB6" stroke="none" d="M 25 0.5 L 49.44624214912941 0.5 L 49.44624214912941 -0.5 L 25 -0.5 Z M 68.7821796491294 0.5 L 93.22842179825882 0.5 L 93.22842179825882 3.5 L 100.22842179825882 0 L 93.22842179825882 -3.5 L 93.22842179825882 -0.5 L 68.7821796491294 -0.5 Z"/><text text-anchor="middle" pointer-events="none" font-size="8px" fill="#000000" x="59.11421089912941" y="3" font-family="sans-serif">trek</text></g><g class="relationship" transform="translate(28.41966511178704 -9.16554900940462) rotate(328.2511723986653)"><path class="outline" fill="#A5ABB6" stroke="none" d="M 25 0.5 L 26.72145017475747 0.5 L 26.72145017475747 -0.5 L 25 -0.5 Z M 48.73316892475747 0.5 L 50.45461909951494 0.5 L 50.45461909951494 3.5 L 57.45461909951494 0 L 50.45461909951494 -3.5 L 50.45461909951494 -0.5 L 48.73316892475747 -0.5 Z"/><text text-anchor="middle" pointer-events="none" font-size="8px" fill="#000000" x="37.72730954975747" y="3" font-family="sans-serif">road</text></g><g class="relationship" transform="translate(28.41966511178704 -9.16554900940462) rotate(328.2511723986653)"><path class="outline" fill="#A5ABB6" stroke="none" d="M 21.40063509461097,-12.933012701892217 L 21.90063509461097,-12.06698729810778 A 33.81432346384172 33.81432346384172 0 0 1 22.515575114945644,-12.413516179248134 L 22.033760900061004,-13.28978957399152 A 34.81432346384172 34.81432346384172 0 0 0 21.40063509461097,-12.933012701892217 Z M 53.12071525453838,-14.518983851453054 L 52.7095937101869,-13.607403314270488 A 33.81432346384172 33.81432346384172 0 0 1 53.34997495817638,-13.31051048630552 L 52.05979582915775,-10.60210914694595 L 59.884607938185155,-10.751492741821968 L 55.07021379686789,-16.92171227211828 L 53.78003466784926,-14.213310932758711 A 34.81432346384172 34.81432346384172 0 0 0 53.12071525453838,-14.518983851453054"/><text text-anchor="middle" pointer-events="none" font-size="8px" fill="#000000" x="37.45205011170244" y="-14.070454635108511" font-family="sans-serif">Publi…</text></g><g class="relationship" transform="translate(98.53602173993536 -52.55288292196963) rotate(420.117034214538)"><path class="outline" fill="#A5ABB6" stroke="none" d="M 25 0.5 L 36.894328926425125 0.5 L 36.894328926425125 -0.5 L 25 -0.5 Z M 56.230266426425125 0.5 L 68.12459535285025 0.5 L 68.12459535285025 3.5 L 75.12459535285025 0 L 68.12459535285025 -3.5 L 68.12459535285025 -0.5 L 56.230266426425125 -0.5 Z"/><text text-anchor="middle" pointer-events="none" font-size="8px" fill="#000000" x="46.562297676425125" y="3" font-family="sans-serif">trek</text></g><g class="relationship" transform="translate(-6.770172320981097 55.79006135379215) rotate(468.8458783528048)"><path class="outline" fill="#A5ABB6" stroke="none" d="M 24.018736134675446,-6.953439040707552 L 24.277555179777966,-5.987513214418485 A 145.91673883466328 145.91673883466328 0 0 1 37.04153035092517,-8.801564246467393 L 36.870185678352385,-9.786775392963875 A 146.91673883466328 146.91673883466328 0 0 0 24.018736134675446,-6.953439040707552 Z M 83.29406325761677,-10.414515572185877 L 83.14942026297413,-9.425031664231426 A 145.91673883466328 145.91673883466328 0 0 1 95.98481755476396,-6.9571334202691295 L 95.28699703801469,-4.039420869930462 L 102.9091169250124,-5.815170972910602 L 96.91524491042965,-10.847416820720687 L 96.21742439368037,-7.929704270382019 A 146.91673883466328 146.91673883466328 0 0 0 83.29406325761677,-10.414515572185877"/><text text-anchor="middle" pointer-events="none" font-size="8px" fill="#000000" x="60.06393103902792" y="-8.44612175856821" transform="rotate(180 60.06393103902792 -11.44612175856821)" font-family="sans-serif">twowheeler</text></g><g class="relationship" transform="translate(-47.86632926351437 176.19311938805743) rotate(346.6710238055291)"><path class="outline" fill="#A5ABB6" stroke="none" d="M 21.40063509461097,12.933012701892217 L 21.90063509461097,12.06698729810778 A 51.70773749656946 51.70773749656946 0 0 0 23.96241061191943,13.195665620581778 L 23.502284248189927,14.083519059726477 A 52.70773749656946 52.70773749656946 0 0 1 21.40063509461097,12.933012701892217 Z M 68.85425492439546,15.586939682000775 L 68.45393891608884,14.670562525206996 A 51.70773749656946 51.70773749656946 0 0 0 70.58593729563717,13.680908065812849 L 69.26129414406302,10.989194759944684 L 77.0873755345919,11.038692929784537 L 72.3521281644027,17.269859140303733 L 71.02748501282855,14.578145834435569 A 52.70773749656946 52.70773749656946 0 0 1 68.85425492439546,15.586939682000775"/><text text-anchor="middle" pointer-events="none" font-size="8px" fill="#000000" x="46.024764295526346" y="22.46584793650929" font-family="sans-serif">twowheeler</text></g><g class="relationship" transform="translate(-47.86632926351437 176.19311938805743) rotate(346.6710238055291)"><path class="outline" fill="#A5ABB6" stroke="none" d="M 25 0.5 L 35.25330050007996 0.5 L 35.25330050007996 -0.5 L 25 -0.5 Z M 57.26501925007996 0.5 L 67.51831975015992 0.5 L 67.51831975015992 3.5 L 74.51831975015992 0 L 67.51831975015992 -3.5 L 67.51831975015992 -0.5 L 57.26501925007996 -0.5 Z"/><text text-anchor="middle" pointer-events="none" font-size="8px" fill="#000000" x="46.25915987507996" y="3" font-family="sans-serif">road</text></g><g class="relationship" transform="translate(-47.86632926351437 176.19311938805743) rotate(346.6710238055291)"><path class="outline" fill="#A5ABB6" stroke="none" d="M 21.40063509461097,-12.933012701892217 L 21.90063509461097,-12.06698729810778 A 51.70773749656946 51.70773749656946 0 0 1 36.55510427999803,-17.767101563536407 L 36.338513879699796,-18.74336412990811 A 52.70773749656946 52.70773749656946 0 0 0 21.40063509461097,-12.933012701892217 Z M 55.73759730825645,-19.386444940837755 L 55.58613769635638,-18.39798149388431 A 51.70773749656946 51.70773749656946 0 0 1 70.58593729563717,-13.680908065812849 L 69.26129414406302,-10.989194759944684 L 77.0873755345919,-11.038692929784537 L 72.3521281644027,-17.269859140303733 L 71.02748501282855,-14.578145834435569 A 52.70773749656946 52.70773749656946 0 0 0 55.73759730825645,-19.386444940837755"/><text text-anchor="middle" pointer-events="none" font-size="8px" fill="#000000" x="46.02476429552635" y="-16.46584793650929" font-family="sans-serif">trek</text></g><g class="relationship" transform="translate(-6.770172320981097 55.79006135379215) rotate(468.8458783528048)"><path class="outline" fill="#A5ABB6" stroke="none" d="M 24.018736134675446,6.953439040707552 L 24.277555179777966,5.987513214418485 A 145.91673883466328 145.91673883466328 0 0 0 50.44791724351329,10.498035184190144 L 50.368449534472276,11.494872624909448 A 146.91673883466328 146.91673883466328 0 0 1 24.018736134675446,6.953439040707552 Z M 69.75454953049268,11.757010010248223 L 69.70206426977823,10.758388311401404 A 145.91673883466328 145.91673883466328 0 0 0 95.98481755476396,6.9571334202691295 L 95.28699703801469,4.039420869930462 L 102.9091169250124,5.815170972910602 L 96.91524491042965,10.847416820720687 L 96.21742439368037,7.929704270382019 A 146.91673883466328 146.91673883466328 0 0 1 69.75454953049268,11.757010010248223"/><text text-anchor="middle" pointer-events="none" font-size="8px" fill="#000000" x="60.06393103902797" y="14.44612175856821" transform="rotate(180 60.06393103902797 11.44612175856821)" font-family="sans-serif">trek</text></g><g class="relationship" transform="translate(-47.86632926351437 176.19311938805743) rotate(389.5748334632944)"><path class="outline" fill="#A5ABB6" stroke="none" d="M 25 0.5 L 50.98725117057178 0.5 L 50.98725117057178 -0.5 L 25 -0.5 Z M 70.32318867057178 0.5 L 96.31043984114356 0.5 L 96.31043984114356 3.5 L 103.31043984114356 0 L 96.31043984114356 -3.5 L 96.31043984114356 -0.5 L 70.32318867057178 -0.5 Z"/><text text-anchor="middle" pointer-events="none" font-size="8px" fill="#000000" x="60.65521992057178" y="3" font-family="sans-serif">trek</text></g><g class="relationship" transform="translate(63.72677485783022 239.5220076207626) rotate(319.217657221223)"><path class="outline" fill="#A5ABB6" stroke="none" d="M 25 0.5 L 52.23626789822325 0.5 L 52.23626789822325 -0.5 L 25 -0.5 Z M 71.57220539822325 0.5 L 98.8084732964465 0.5 L 98.8084732964465 3.5 L 105.8084732964465 0 L 98.8084732964465 -3.5 L 98.8084732964465 -0.5 L 71.57220539822325 -0.5 Z"/><text text-anchor="middle" pointer-events="none" font-size="8px" fill="#000000" x="61.90423664822325" y="3" font-family="sans-serif">trek</text></g></g><g class="layer nodes"><g class="node" transform="translate(28.41966511178704,-9.16554900940462)"><circle class="outline" cx="0" cy="0" r="25" fill="#F16667" stroke="#eb2728" stroke-width="2px"/><text text-anchor="middle" pointer-events="none" font-family="sans-serif" dy="1.5625" font-size="25" fill="#FFFFFF"/><text text-anchor="middle" pointer-events="none" x="0" y="5" font-size="10px" fill="#FFFFFF" font-family="sans-serif"> Darjeeling</text></g><g class="node" transform="translate(162.7744784456577,154.0795761237305)"><circle class="outline" cx="0" cy="0" r="25" fill="#D9C8AE" stroke="#c0a378" stroke-width="2px"/><text text-anchor="middle" pointer-events="none" font-family="sans-serif" dy="1.5625" font-size="25" fill="#2A2C34"/><text text-anchor="middle" pointer-events="none" x="0" y="5" font-size="10px" fill="#2A2C34" font-family="sans-serif"> Sandak…</text></g><g class="node" transform="translate(148.42109754202167,34.259638103468305)"><circle class="outline" cx="0" cy="0" r="25" fill="#8DCC93" stroke="#5db665" stroke-width="2px"/><text text-anchor="middle" pointer-events="none" font-family="sans-serif" dy="1.5625" font-size="25" fill="#2A2C34"/><text text-anchor="middle" pointer-events="none" x="0" y="5" font-size="10px" fill="#2A2C34" font-family="sans-serif"> Tumbling</text></g><g class="node" transform="translate(278.00688746381616,70.57338796642648)"><circle class="outline" cx="0" cy="0" r="25" fill="#8DCC93" stroke="#5db665" stroke-width="2px"/><text text-anchor="middle" pointer-events="none" font-family="sans-serif" dy="1.5625" font-size="25" fill="#2A2C34"/><text text-anchor="middle" pointer-events="none" x="0" y="5" font-size="10px" fill="#2A2C34" font-family="sans-serif"> Gairibus</text></g><g class="node" transform="translate(204.76510765252235,13.761059294270515)"><circle class="outline" cx="0" cy="0" r="25" fill="#8DCC93" stroke="#5db665" stroke-width="2px"/><text text-anchor="middle" pointer-events="none" font-family="sans-serif" dy="1.5625" font-size="25" fill="#2A2C34"/><text text-anchor="middle" pointer-events="none" x="0" y="5" font-size="10px" fill="#2A2C34" font-family="sans-serif"> BhikeBh…</text></g><g class="node" transform="translate(98.53602173993536,-52.55288292196963)"><circle class="outline" cx="0" cy="0" r="25" fill="#F16667" stroke="#eb2728" stroke-width="2px"/><text text-anchor="middle" pointer-events="none" font-family="sans-serif" dy="1.5625" font-size="25" fill="#FFFFFF"/><text text-anchor="middle" pointer-events="none" x="0" y="5" font-size="10px" fill="#FFFFFF" font-family="sans-serif"> Rimbik</text></g><g class="node" transform="translate(-6.770172320981097,55.79006135379215)"><circle class="outline" cx="0" cy="0" r="25" fill="#8DCC93" stroke="#5db665" stroke-width="2px"/><text text-anchor="middle" pointer-events="none" font-family="sans-serif" dy="1.5625" font-size="25" fill="#2A2C34"/><text text-anchor="middle" pointer-events="none" x="0" y="5" font-size="10px" fill="#2A2C34" font-family="sans-serif"> Sirikhola</text></g><g class="node" transform="translate(48.97120632173974,153.24997950551926)"><circle class="outline" cx="0" cy="0" r="25" fill="#8DCC93" stroke="#5db665" stroke-width="2px"/><text text-anchor="middle" pointer-events="none" font-family="sans-serif" dy="1.5625" font-size="25" fill="#2A2C34"/><text text-anchor="middle" pointer-events="none" x="0" y="5" font-size="10px" fill="#2A2C34" font-family="sans-serif"> Gurdum</text></g><g class="node" transform="translate(-47.86632926351437,176.19311938805743)"><circle class="outline" cx="0" cy="0" r="25" fill="#8DCC93" stroke="#5db665" stroke-width="2px"/><text text-anchor="middle" pointer-events="none" font-family="sans-serif" dy="1.5625" font-size="25" fill="#2A2C34"/><text text-anchor="middle" pointer-events="none" x="0" y="5" font-size="10px" fill="#2A2C34" font-family="sans-serif"> Rammam</text></g><g class="node" transform="translate(63.72677485783022,239.5220076207626)"><circle class="outline" cx="0" cy="0" r="25" fill="#D9C8AE" stroke="#c0a378" stroke-width="2px"/><text text-anchor="middle" pointer-events="none" font-family="sans-serif" dy="1.5625" font-size="25" fill="#2A2C34"/><text text-anchor="middle" pointer-events="none" x="0" y="5" font-size="10px" fill="#2A2C34" font-family="sans-serif"> Sabargr…</text></g></g></svg>